<?xml version="1.0" encoding="UTF-8" standalone="no"?>
<!DOCTYPE svg PUBLIC "-//W3C//DTD SVG 1.1//EN"
 "http://www.w3.org/Graphics/SVG/1.1/DTD/svg11.dtd">
<!-- Generated by graphviz version 14.1.1 (20251213.1925)
 -->
<!-- Title: Backend Pages: 1 -->
<svg width="839pt" height="1529pt"
 viewBox="0.00 0.00 839.00 1529.00" xmlns="http://www.w3.org/2000/svg" xmlns:xlink="http://www.w3.org/1999/xlink">
<g id="graph0" class="graph" transform="scale(1 1) rotate(0) translate(4 1525)">
<title>Backend</title>
<polygon fill="#1a1a2e" stroke="none" points="-4,4 -4,-1525 834.5,-1525 834.5,4 -4,4"/>
<g id="clust1" class="cluster">
<title>cluster_data</title>
<path fill="#0d1f0d" stroke="#4ade80" stroke-dasharray="5,2" d="M398.12,-169C398.12,-169 810.5,-169 810.5,-169 816.5,-169 822.5,-175 822.5,-181 822.5,-181 822.5,-468 822.5,-468 822.5,-474 816.5,-480 810.5,-480 810.5,-480 398.12,-480 398.12,-480 392.12,-480 386.12,-474 386.12,-468 386.12,-468 386.12,-181 386.12,-181 386.12,-175 392.12,-169 398.12,-169"/>
<text xml:space="preserve" text-anchor="middle" x="604.31" y="-464.6" font-family="Arial Bold" font-size="12.00" fill="#4ade80">📦 DATA</text>
</g>
<g id="clust2" class="cluster">
<title>cluster_strategies</title>
<path fill="#1a0d2e" stroke="#a78bfa" stroke-dasharray="5,2" d="M214.12,-8C214.12,-8 490.12,-8 490.12,-8 496.12,-8 502.12,-14 502.12,-20 502.12,-20 502.12,-149 502.12,-149 502.12,-155 496.12,-161 490.12,-161 490.12,-161 214.12,-161 214.12,-161 208.12,-161 202.12,-155 202.12,-149 202.12,-149 202.12,-20 202.12,-20 202.12,-14 208.12,-8 214.12,-8"/>
<text xml:space="preserve" text-anchor="middle" x="352.12" y="-145.6" font-family="Arial Bold" font-size="12.00" fill="#a78bfa">🎯 STRATEGIES</text>
</g>
<g id="clust3" class="cluster">
<title>cluster_core</title>
<path fill="#0d1a2e" stroke="#60a5fa" stroke-dasharray="5,2" d="M202.5,-570C202.5,-570 675.25,-570 675.25,-570 681.25,-570 687.25,-576 687.25,-582 687.25,-582 687.25,-1501 687.25,-1501 687.25,-1507 681.25,-1513 675.25,-1513 675.25,-1513 202.5,-1513 202.5,-1513 196.5,-1513 190.5,-1507 190.5,-1501 190.5,-1501 190.5,-582 190.5,-582 190.5,-576 196.5,-570 202.5,-570"/>
<text xml:space="preserve" text-anchor="middle" x="438.88" y="-1497.6" font-family="Arial Bold" font-size="12.00" fill="#60a5fa">⚙️ CORE</text>
</g>
<g id="clust4" class="cluster">
<title>cluster_api</title>
<path fill="#2e1a0d" stroke="#fb923c" stroke-dasharray="5,2" d="M29,-807C29,-807 113.5,-807 113.5,-807 119.5,-807 125.5,-813 125.5,-819 125.5,-819 125.5,-1027 125.5,-1027 125.5,-1033 119.5,-1039 113.5,-1039 113.5,-1039 29,-1039 29,-1039 23,-1039 17,-1033 17,-1027 17,-1027 17,-819 17,-819 17,-813 23,-807 29,-807"/>
<text xml:space="preserve" text-anchor="middle" x="71.25" y="-1023.6" font-family="Arial Bold" font-size="12.00" fill="#fb923c">🌐 API</text>
</g>
<g id="clust5" class="cluster">
<title>cluster_broker</title>
<path fill="#2e0d0d" stroke="#f87171" stroke-dasharray="5,2" d="M406,-488C406,-488 487.5,-488 487.5,-488 493.5,-488 499.5,-494 499.5,-500 499.5,-500 499.5,-550 499.5,-550 499.5,-556 493.5,-562 487.5,-562 487.5,-562 406,-562 406,-562 400,-562 394,-556 394,-550 394,-550 394,-500 394,-500 394,-494 400,-488 406,-488"/>
<text xml:space="preserve" text-anchor="middle" x="446.75" y="-546.6" font-family="Arial Bold" font-size="12.00" fill="#f87171">💹 BROKER</text>
</g>
<g id="clust6" class="cluster">
<title>cluster_llm</title>
<path fill="#0d2e2a" stroke="#2dd4bf" stroke-dasharray="5,2" d="M223.5,-404C223.5,-404 289.25,-404 289.25,-404 295.25,-404 301.25,-410 301.25,-416 301.25,-416 301.25,-466 301.25,-466 301.25,-472 295.25,-478 289.25,-478 289.25,-478 223.5,-478 223.5,-478 217.5,-478 211.5,-472 211.5,-466 211.5,-466 211.5,-416 211.5,-416 211.5,-410 217.5,-404 223.5,-404"/>
<text xml:space="preserve" text-anchor="middle" x="256.38" y="-462.6" font-family="Arial Bold" font-size="12.00" fill="#2dd4bf">🤖 LLM</text>
</g>
<g id="clust7" class="cluster">
<title>cluster_legend</title>
<path fill="#111111" stroke="#444444" d="M20,-1165C20,-1165 122.5,-1165 122.5,-1165 128.5,-1165 134.5,-1171 134.5,-1177 134.5,-1177 134.5,-1383 134.5,-1383 134.5,-1389 128.5,-1395 122.5,-1395 122.5,-1395 20,-1395 20,-1395 14,-1395 8,-1389 8,-1383 8,-1383 8,-1177 8,-1177 8,-1171 14,-1165 20,-1165"/>
<text xml:space="preserve" text-anchor="middle" x="71.25" y="-1381.5" font-family="Arial" font-size="10.00" fill="#aaaaaa">LEGEND</text>
</g>
<!-- database -->
<g id="node1" class="node">
<title>database</title>
<path fill="#166534" stroke="black" stroke-width="1.5" d="M802.5,-331C802.5,-331 763.25,-331 763.25,-331 757.25,-331 751.25,-325 751.25,-319 751.25,-319 751.25,-307 751.25,-307 751.25,-301 757.25,-295 763.25,-295 763.25,-295 802.5,-295 802.5,-295 808.5,-295 814.5,-301 814.5,-307 814.5,-307 814.5,-319 814.5,-319 814.5,-325 808.5,-331 802.5,-331"/>
<text xml:space="preserve" text-anchor="middle" x="782.88" y="-314" font-family="Consolas" font-size="10.00" fill="white">database</text>
<text xml:space="preserve" text-anchor="middle" x="782.88" y="-303.5" font-family="Consolas" font-size="10.00" fill="white">788 lines</text>
</g>
<!-- polygon_client -->
<g id="node2" class="node">
<title>polygon_client</title>
<path fill="#166534" stroke="black" stroke-width="1.5" d="M662,-331C662,-331 596.5,-331 596.5,-331 590.5,-331 584.5,-325 584.5,-319 584.5,-319 584.5,-307 584.5,-307 584.5,-301 590.5,-295 596.5,-295 596.5,-295 662,-295 662,-295 668,-295 674,-301 674,-307 674,-307 674,-319 674,-319 674,-325 668,-331 662,-331"/>
<text xml:space="preserve" text-anchor="middle" x="629.25" y="-314" font-family="Consolas" font-size="10.00" fill="white">polygon_client</text>
<text xml:space="preserve" text-anchor="middle" x="629.25" y="-303.5" font-family="Consolas" font-size="10.00" fill="white">630 lines</text>
</g>
<!-- polygon_client&#45;&gt;database -->
<g id="edge23" class="edge">
<title>polygon_client&#45;&gt;database</title>
<path fill="none" stroke="#888888" stroke-width="1.2" d="M674.51,-313C674.51,-313 741.78,-313 741.78,-313"/>
<polygon fill="#888888" stroke="#888888" stroke-width="1.2" points="741.78,-315.45 748.78,-313 741.78,-310.55 741.78,-315.45"/>
</g>
<!-- polygon_loader -->
<g id="node3" class="node">
<title>polygon_loader</title>
<path fill="#166534" stroke="black" stroke-width="1.5" d="M479.5,-213C479.5,-213 414,-213 414,-213 408,-213 402,-207 402,-201 402,-201 402,-189 402,-189 402,-183 408,-177 414,-177 414,-177 479.5,-177 479.5,-177 485.5,-177 491.5,-183 491.5,-189 491.5,-189 491.5,-201 491.5,-201 491.5,-207 485.5,-213 479.5,-213"/>
<text xml:space="preserve" text-anchor="middle" x="446.75" y="-190.75" font-family="Consolas" font-size="10.00" fill="white">polygon_loader</text>
</g>
<!-- polygon_loader&#45;&gt;polygon_client -->
<g id="edge24" class="edge">
<title>polygon_loader&#45;&gt;polygon_client</title>
<path fill="none" stroke="#888888" stroke-width="1.2" d="M491.92,-195C546.04,-195 629.5,-195 629.5,-195 629.5,-195 629.5,-285.49 629.5,-285.49"/>
<polygon fill="#888888" stroke="#888888" stroke-width="1.2" points="627.05,-285.49 629.5,-292.49 631.95,-285.49 627.05,-285.49"/>
</g>
<!-- watchlist_store -->
<g id="node4" class="node">
<title>watchlist_store</title>
<path fill="#166534" stroke="black" stroke-width="1.5" d="M482.12,-292C482.12,-292 411.38,-292 411.38,-292 405.38,-292 399.38,-286 399.38,-280 399.38,-280 399.38,-268 399.38,-268 399.38,-262 405.38,-256 411.38,-256 411.38,-256 482.12,-256 482.12,-256 488.12,-256 494.12,-262 494.12,-268 494.12,-268 494.12,-280 494.12,-280 494.12,-286 488.12,-292 482.12,-292"/>
<text xml:space="preserve" text-anchor="middle" x="446.75" y="-269.75" font-family="Consolas" font-size="10.00" fill="white">watchlist_store</text>
</g>
<!-- symbol_mapper -->
<g id="node5" class="node">
<title>symbol_mapper</title>
<path fill="#166534" stroke="black" stroke-width="1.5" d="M476.88,-371C476.88,-371 416.62,-371 416.62,-371 410.62,-371 404.62,-365 404.62,-359 404.62,-359 404.62,-347 404.62,-347 404.62,-341 410.62,-335 416.62,-335 416.62,-335 476.88,-335 476.88,-335 482.88,-335 488.88,-341 488.88,-347 488.88,-347 488.88,-359 488.88,-359 488.88,-365 482.88,-371 476.88,-371"/>
<text xml:space="preserve" text-anchor="middle" x="446.75" y="-348.75" font-family="Consolas" font-size="10.00" fill="white">symbol_mapper</text>
</g>
<!-- massive_ws -->
<g id="node6" class="node">
<title>massive_ws</title>
<path fill="#166534" stroke="black" stroke-width="1.5" d="M487.38,-450C487.38,-450 406.12,-450 406.12,-450 400.12,-450 394.12,-444 394.12,-438 394.12,-438 394.12,-426 394.12,-426 394.12,-420 400.12,-414 406.12,-414 406.12,-414 487.38,-414 487.38,-414 493.38,-414 499.38,-420 499.38,-426 499.38,-426 499.38,-438 499.38,-438 499.38,-444 493.38,-450 487.38,-450"/>
<text xml:space="preserve" text-anchor="middle" x="446.75" y="-427.75" font-family="Consolas" font-size="10.00" fill="white">massive_ws_client</text>
</g>
<!-- seismograph -->
<g id="node7" class="node">
<title>seismograph</title>
<path fill="#7c3aed" stroke="#ef4444" stroke-width="3" d="M290.62,-52C290.62,-52 222.12,-52 222.12,-52 216.12,-52 210.12,-46 210.12,-40 210.12,-40 210.12,-28 210.12,-28 210.12,-22 216.12,-16 222.12,-16 222.12,-16 290.62,-16 290.62,-16 296.62,-16 302.62,-22 302.62,-28 302.62,-28 302.62,-40 302.62,-40 302.62,-46 296.62,-52 290.62,-52"/>
<text xml:space="preserve" text-anchor="middle" x="256.38" y="-35" font-family="Consolas" font-size="10.00" fill="white">seismograph</text>
<text xml:space="preserve" text-anchor="middle" x="256.38" y="-24.5" font-family="Consolas" font-size="10.00" fill="white">⚠️ 2,285 lines</text>
</g>
<!-- strategy_base -->
<g id="node8" class="node">
<title>strategy_base</title>
<path fill="#5b21b6" stroke="black" stroke-width="1.5" d="M476.88,-131C476.88,-131 416.62,-131 416.62,-131 410.62,-131 404.62,-125 404.62,-119 404.62,-119 404.62,-107 404.62,-107 404.62,-101 410.62,-95 416.62,-95 416.62,-95 476.88,-95 476.88,-95 482.88,-95 488.88,-101 488.88,-107 488.88,-107 488.88,-119 488.88,-119 488.88,-125 482.88,-131 476.88,-131"/>
<text xml:space="preserve" text-anchor="middle" x="446.75" y="-114" font-family="Consolas" font-size="10.00" fill="white">strategy_base</text>
<text xml:space="preserve" text-anchor="middle" x="446.75" y="-103.5" font-family="Consolas" font-size="10.00" fill="white">582 lines</text>
</g>
<!-- seismograph&#45;&gt;strategy_base -->
<g id="edge28" class="edge">
<title>seismograph&#45;&gt;strategy_base</title>
<path fill="none" stroke="#888888" stroke-width="1.2" d="M299.5,-53.5C299.5,-74.21 299.5,-104 299.5,-104 299.5,-104 395.34,-104 395.34,-104"/>
<polygon fill="#888888" stroke="#888888" stroke-width="1.2" points="395.34,-106.45 402.34,-104 395.34,-101.55 395.34,-106.45"/>
</g>
<!-- score_v3_config -->
<g id="node9" class="node">
<title>score_v3_config</title>
<path fill="#5b21b6" stroke="black" stroke-width="1.5" d="M482.12,-52C482.12,-52 411.38,-52 411.38,-52 405.38,-52 399.38,-46 399.38,-40 399.38,-40 399.38,-28 399.38,-28 399.38,-22 405.38,-16 411.38,-16 411.38,-16 482.12,-16 482.12,-16 488.12,-16 494.12,-22 494.12,-28 494.12,-28 494.12,-40 494.12,-40 494.12,-46 488.12,-52 482.12,-52"/>
<text xml:space="preserve" text-anchor="middle" x="446.75" y="-29.75" font-family="Consolas" font-size="10.00" fill="white">score_v3_config</text>
</g>
<!-- seismograph&#45;&gt;score_v3_config -->
<g id="edge30" class="edge">
<title>seismograph&#45;&gt;score_v3_config</title>
<path fill="none" stroke="#888888" stroke-width="1.2" d="M303.92,-25C303.92,-25 390,-25 390,-25"/>
<polygon fill="#888888" stroke="#888888" stroke-width="1.2" points="390,-27.45 397,-25 390,-22.55 390,-27.45"/>
</g>
<!-- realtime_scanner -->
<g id="node11" class="node">
<title>realtime_scanner</title>
<path fill="#1d4ed8" stroke="#ef4444" stroke-width="3" d="M294.38,-851C294.38,-851 218.38,-851 218.38,-851 212.38,-851 206.38,-845 206.38,-839 206.38,-839 206.38,-827 206.38,-827 206.38,-821 212.38,-815 218.38,-815 218.38,-815 294.38,-815 294.38,-815 300.38,-815 306.38,-821 306.38,-827 306.38,-827 306.38,-839 306.38,-839 306.38,-845 300.38,-851 294.38,-851"/>
<text xml:space="preserve" text-anchor="middle" x="256.38" y="-834" font-family="Consolas" font-size="10.00" fill="white">realtime_scanner</text>
<text xml:space="preserve" text-anchor="middle" x="256.38" y="-823.5" font-family="Consolas" font-size="10.00" fill="white">⚠️ 719 lines</text>
</g>
<!-- seismograph&#45;&gt;realtime_scanner -->
<g id="edge35" class="edge">
<title>seismograph&#45;&gt;realtime_scanner</title>
<path fill="none" stroke="#ef4444" stroke-width="3" stroke-dasharray="5,2" d="M303.9,-43C312.86,-43 319.5,-43 319.5,-43 319.5,-43 319.5,-817.6 319.5,-817.6 319.5,-817.6 318.31,-817.6 318.31,-817.6"/>
<polygon fill="#ef4444" stroke="#ef4444" stroke-width="3" points="319.17,-815.15 312.17,-817.6 319.17,-820.05 319.17,-815.15"/>
</g>
<!-- technical_analysis -->
<g id="node13" class="node">
<title>technical_analysis</title>
<path fill="#1e40af" stroke="black" stroke-width="1.5" d="M299.62,-693C299.62,-693 213.12,-693 213.12,-693 207.12,-693 201.12,-687 201.12,-681 201.12,-681 201.12,-669 201.12,-669 201.12,-663 207.12,-657 213.12,-657 213.12,-657 299.62,-657 299.62,-657 305.62,-657 311.62,-663 311.62,-669 311.62,-669 311.62,-681 311.62,-681 311.62,-687 305.62,-693 299.62,-693"/>
<text xml:space="preserve" text-anchor="middle" x="256.38" y="-670.75" font-family="Consolas" font-size="10.00" fill="white">technical_analysis</text>
</g>
<!-- seismograph&#45;&gt;technical_analysis -->
<g id="edge29" class="edge">
<title>seismograph&#45;&gt;technical_analysis</title>
<path fill="none" stroke="#888888" stroke-width="1.2" d="M214.5,-53.18C214.5,-53.18 214.5,-647.69 214.5,-647.69"/>
<polygon fill="#888888" stroke="#888888" stroke-width="1.2" points="212.05,-647.69 214.5,-654.69 216.95,-647.69 212.05,-647.69"/>
</g>
<!-- zscore_calc -->
<g id="node25" class="node">
<title>zscore_calc</title>
<path fill="#1e3a5f" stroke="black" stroke-width="1.5" d="M297,-1246C297,-1246 215.75,-1246 215.75,-1246 209.75,-1246 203.75,-1240 203.75,-1234 203.75,-1234 203.75,-1222 203.75,-1222 203.75,-1216 209.75,-1210 215.75,-1210 215.75,-1210 297,-1210 297,-1210 303,-1210 309,-1216 309,-1222 309,-1222 309,-1234 309,-1234 309,-1240 303,-1246 297,-1246"/>
<text xml:space="preserve" text-anchor="middle" x="256.38" y="-1223.75" font-family="Consolas" font-size="10.00" fill="white">zscore_calculator</text>
</g>
<!-- seismograph&#45;&gt;zscore_calc -->
<g id="edge31" class="edge">
<title>seismograph&#45;&gt;zscore_calc</title>
<path fill="none" stroke="#888888" stroke-width="1.2" d="M304.01,-34C315.98,-34 325.5,-34 325.5,-34 325.5,-34 325.5,-1216.5 325.5,-1216.5 325.5,-1216.5 318.28,-1216.5 318.28,-1216.5"/>
<polygon fill="#888888" stroke="#888888" stroke-width="1.2" points="318.28,-1214.05 311.28,-1216.5 318.28,-1218.95 318.28,-1214.05"/>
</g>
<!-- strategy_template -->
<g id="node10" class="node">
<title>strategy_template</title>
<path fill="#5b21b6" stroke="black" stroke-width="1.5" d="M276,-131C276,-131 236.75,-131 236.75,-131 230.75,-131 224.75,-125 224.75,-119 224.75,-119 224.75,-107 224.75,-107 224.75,-101 230.75,-95 236.75,-95 236.75,-95 276,-95 276,-95 282,-95 288,-101 288,-107 288,-107 288,-119 288,-119 288,-125 282,-131 276,-131"/>
<text xml:space="preserve" text-anchor="middle" x="256.38" y="-108.75" font-family="Consolas" font-size="10.00" fill="white">_template</text>
</g>
<!-- realtime_scanner&#45;&gt;database -->
<g id="edge22" class="edge">
<title>realtime_scanner&#45;&gt;database</title>
<path fill="none" stroke="#888888" stroke-width="1.2" d="M307.78,-825.4C440.17,-825.4 782.5,-825.4 782.5,-825.4 782.5,-825.4 782.5,-340.36 782.5,-340.36"/>
<polygon fill="#888888" stroke="#888888" stroke-width="1.2" points="784.95,-340.36 782.5,-333.36 780.05,-340.36 784.95,-340.36"/>
</g>
<!-- realtime_scanner&#45;&gt;polygon_client -->
<g id="edge20" class="edge">
<title>realtime_scanner&#45;&gt;polygon_client</title>
<path fill="none" stroke="#888888" stroke-width="1.2" d="M307.51,-822.8C412.91,-822.8 644.5,-822.8 644.5,-822.8 644.5,-822.8 644.5,-340.56 644.5,-340.56"/>
<polygon fill="#888888" stroke="#888888" stroke-width="1.2" points="646.95,-340.56 644.5,-333.56 642.05,-340.56 646.95,-340.56"/>
</g>
<!-- realtime_scanner&#45;&gt;watchlist_store -->
<g id="edge21" class="edge">
<title>realtime_scanner&#45;&gt;watchlist_store</title>
<path fill="none" stroke="#888888" stroke-width="1.2" d="M307.78,-820.2C331.08,-820.2 353.5,-820.2 353.5,-820.2 353.5,-820.2 353.5,-280 353.5,-280 353.5,-280 389.94,-280 389.94,-280"/>
<polygon fill="#888888" stroke="#888888" stroke-width="1.2" points="389.94,-282.45 396.94,-280 389.94,-277.55 389.94,-282.45"/>
</g>
<!-- realtime_scanner&#45;&gt;seismograph -->
<g id="edge26" class="edge">
<title>realtime_scanner&#45;&gt;seismograph</title>
<path fill="none" stroke="#888888" stroke-width="1.2" d="M205.04,-824C183.13,-824 162.5,-824 162.5,-824 162.5,-824 162.5,-34 162.5,-34 162.5,-34 200.07,-34 200.07,-34"/>
<polygon fill="#888888" stroke="#888888" stroke-width="1.2" points="200.07,-36.45 207.07,-34 200.07,-31.55 200.07,-36.45"/>
</g>
<!-- ignition_monitor -->
<g id="node12" class="node">
<title>ignition_monitor</title>
<path fill="#1d4ed8" stroke="black" stroke-width="1.5" d="M484.75,-1483C484.75,-1483 408.75,-1483 408.75,-1483 402.75,-1483 396.75,-1477 396.75,-1471 396.75,-1471 396.75,-1459 396.75,-1459 396.75,-1453 402.75,-1447 408.75,-1447 408.75,-1447 484.75,-1447 484.75,-1447 490.75,-1447 496.75,-1453 496.75,-1459 496.75,-1459 496.75,-1471 496.75,-1471 496.75,-1477 490.75,-1483 484.75,-1483"/>
<text xml:space="preserve" text-anchor="middle" x="446.75" y="-1460.75" font-family="Consolas" font-size="10.00" fill="white">ignition_monitor</text>
</g>
<!-- realtime_scanner&#45;&gt;ignition_monitor -->
<g id="edge10" class="edge">
<title>realtime_scanner&#45;&gt;ignition_monitor</title>
<path fill="none" stroke="#888888" stroke-width="1.2" d="M307.8,-845.25C328.47,-845.25 347.5,-845.25 347.5,-845.25 347.5,-845.25 347.5,-1456 347.5,-1456 347.5,-1456 387.44,-1456 387.44,-1456"/>
<polygon fill="#888888" stroke="#888888" stroke-width="1.2" points="387.44,-1458.45 394.44,-1456 387.44,-1453.55 387.44,-1458.45"/>
</g>
<!-- tick_dispatcher -->
<g id="node23" class="node">
<title>tick_dispatcher</title>
<path fill="#1e3a5f" stroke="black" stroke-width="1.5" d="M482.12,-943C482.12,-943 411.38,-943 411.38,-943 405.38,-943 399.38,-937 399.38,-931 399.38,-931 399.38,-919 399.38,-919 399.38,-913 405.38,-907 411.38,-907 411.38,-907 482.12,-907 482.12,-907 488.12,-907 494.12,-913 494.12,-919 494.12,-919 494.12,-931 494.12,-931 494.12,-937 488.12,-943 482.12,-943"/>
<text xml:space="preserve" text-anchor="middle" x="446.75" y="-920.75" font-family="Consolas" font-size="10.00" fill="white">tick_dispatcher</text>
</g>
<!-- realtime_scanner&#45;&gt;tick_dispatcher -->
<g id="edge11" class="edge">
<title>realtime_scanner&#45;&gt;tick_dispatcher</title>
<path fill="none" stroke="#888888" stroke-width="1.2" d="M307.64,-839.5C337.57,-839.5 369.5,-839.5 369.5,-839.5 369.5,-839.5 369.5,-918.5 369.5,-918.5 369.5,-918.5 389.89,-918.5 389.89,-918.5"/>
<polygon fill="#888888" stroke="#888888" stroke-width="1.2" points="389.89,-920.95 396.89,-918.5 389.89,-916.05 389.89,-920.95"/>
</g>
<!-- subscription_mgr -->
<g id="node24" class="node">
<title>subscription_mgr</title>
<path fill="#1e3a5f" stroke="black" stroke-width="1.5" d="M495.25,-864C495.25,-864 398.25,-864 398.25,-864 392.25,-864 386.25,-858 386.25,-852 386.25,-852 386.25,-840 386.25,-840 386.25,-834 392.25,-828 398.25,-828 398.25,-828 495.25,-828 495.25,-828 501.25,-828 507.25,-834 507.25,-840 507.25,-840 507.25,-852 507.25,-852 507.25,-858 501.25,-864 495.25,-864"/>
<text xml:space="preserve" text-anchor="middle" x="446.75" y="-841.75" font-family="Consolas" font-size="10.00" fill="white">subscription_manager</text>
</g>
<!-- realtime_scanner&#45;&gt;subscription_mgr -->
<g id="edge12" class="edge">
<title>realtime_scanner&#45;&gt;subscription_mgr</title>
<path fill="none" stroke="#888888" stroke-width="1.2" d="M307.64,-833.75C307.64,-833.75 376.76,-833.75 376.76,-833.75"/>
<polygon fill="#888888" stroke="#888888" stroke-width="1.2" points="376.76,-836.2 383.76,-833.75 376.76,-831.3 376.76,-836.2"/>
</g>
<!-- tick_broadcaster -->
<g id="node22" class="node">
<title>tick_broadcaster</title>
<path fill="#1e3a5f" stroke="black" stroke-width="1.5" d="M667.25,-1483C667.25,-1483 591.25,-1483 591.25,-1483 585.25,-1483 579.25,-1477 579.25,-1471 579.25,-1471 579.25,-1459 579.25,-1459 579.25,-1453 585.25,-1447 591.25,-1447 591.25,-1447 667.25,-1447 667.25,-1447 673.25,-1447 679.25,-1453 679.25,-1459 679.25,-1459 679.25,-1471 679.25,-1471 679.25,-1477 673.25,-1483 667.25,-1483"/>
<text xml:space="preserve" text-anchor="middle" x="629.25" y="-1460.75" font-family="Consolas" font-size="10.00" fill="white">tick_broadcaster</text>
</g>
<!-- ignition_monitor&#45;&gt;tick_broadcaster -->
<g id="edge13" class="edge">
<title>ignition_monitor&#45;&gt;tick_broadcaster</title>
<path fill="none" stroke="#888888" stroke-width="1.2" d="M497.1,-1465C497.1,-1465 569.93,-1465 569.93,-1465"/>
<polygon fill="#888888" stroke="#888888" stroke-width="1.2" points="569.93,-1467.45 576.93,-1465 569.93,-1462.55 569.93,-1467.45"/>
</g>
<!-- risk_manager -->
<g id="node14" class="node">
<title>risk_manager</title>
<path fill="#1e40af" stroke="black" stroke-width="1.5" d="M283.88,-1009C283.88,-1009 228.88,-1009 228.88,-1009 222.88,-1009 216.88,-1003 216.88,-997 216.88,-997 216.88,-985 216.88,-985 216.88,-979 222.88,-973 228.88,-973 228.88,-973 283.88,-973 283.88,-973 289.88,-973 295.88,-979 295.88,-985 295.88,-985 295.88,-997 295.88,-997 295.88,-1003 289.88,-1009 283.88,-1009"/>
<text xml:space="preserve" text-anchor="middle" x="256.38" y="-986.75" font-family="Consolas" font-size="10.00" fill="white">risk_manager</text>
</g>
<!-- risk_config -->
<g id="node29" class="node">
<title>risk_config</title>
<path fill="#1e3a5f" stroke="black" stroke-width="1.5" d="M471.62,-1022C471.62,-1022 421.88,-1022 421.88,-1022 415.88,-1022 409.88,-1016 409.88,-1010 409.88,-1010 409.88,-998 409.88,-998 409.88,-992 415.88,-986 421.88,-986 421.88,-986 471.62,-986 471.62,-986 477.62,-986 483.62,-992 483.62,-998 483.62,-998 483.62,-1010 483.62,-1010 483.62,-1016 477.62,-1022 471.62,-1022"/>
<text xml:space="preserve" text-anchor="middle" x="446.75" y="-999.75" font-family="Consolas" font-size="10.00" fill="white">risk_config</text>
</g>
<!-- risk_manager&#45;&gt;risk_config -->
<g id="edge19" class="edge">
<title>risk_manager&#45;&gt;risk_config</title>
<path fill="none" stroke="#888888" stroke-width="1.2" d="M296.28,-997.5C296.28,-997.5 400.34,-997.5 400.34,-997.5"/>
<polygon fill="#888888" stroke="#888888" stroke-width="1.2" points="400.34,-999.95 407.34,-997.5 400.34,-995.05 400.34,-999.95"/>
</g>
<!-- ibkr_connector -->
<g id="node35" class="node">
<title>ibkr_connector</title>
<path fill="#b91c1c" stroke="black" stroke-width="1.5" d="M479.5,-532C479.5,-532 414,-532 414,-532 408,-532 402,-526 402,-520 402,-520 402,-508 402,-508 402,-502 408,-496 414,-496 414,-496 479.5,-496 479.5,-496 485.5,-496 491.5,-502 491.5,-508 491.5,-508 491.5,-520 491.5,-520 491.5,-526 485.5,-532 479.5,-532"/>
<text xml:space="preserve" text-anchor="middle" x="446.75" y="-509.75" font-family="Consolas" font-size="10.00" fill="white">ibkr_connector</text>
</g>
<!-- risk_manager&#45;&gt;ibkr_connector -->
<g id="edge33" class="edge">
<title>risk_manager&#45;&gt;ibkr_connector</title>
<path fill="none" stroke="#888888" stroke-width="1.2" d="M296.44,-979.5C325.06,-979.5 358.5,-979.5 358.5,-979.5 358.5,-979.5 358.5,-508 358.5,-508 358.5,-508 392.52,-508 392.52,-508"/>
<polygon fill="#888888" stroke="#888888" stroke-width="1.2" points="392.52,-510.45 399.52,-508 392.52,-505.55 392.52,-510.45"/>
</g>
<!-- engine -->
<g id="node15" class="node">
<title>engine</title>
<path fill="#1e40af" stroke="black" stroke-width="1.5" d="M271.38,-772C271.38,-772 241.38,-772 241.38,-772 235.38,-772 229.38,-766 229.38,-760 229.38,-760 229.38,-748 229.38,-748 229.38,-742 235.38,-736 241.38,-736 241.38,-736 271.38,-736 271.38,-736 277.38,-736 283.38,-742 283.38,-748 283.38,-748 283.38,-760 283.38,-760 283.38,-766 277.38,-772 271.38,-772"/>
<text xml:space="preserve" text-anchor="middle" x="256.38" y="-749.75" font-family="Consolas" font-size="10.00" fill="white">engine</text>
</g>
<!-- engine&#45;&gt;strategy_base -->
<g id="edge27" class="edge">
<title>engine&#45;&gt;strategy_base</title>
<path fill="none" stroke="#888888" stroke-width="1.2" d="M283.98,-742.5C305.05,-742.5 330.5,-742.5 330.5,-742.5 330.5,-742.5 330.5,-113 330.5,-113 330.5,-113 395.31,-113 395.31,-113"/>
<polygon fill="#888888" stroke="#888888" stroke-width="1.2" points="395.31,-115.45 402.31,-113 395.31,-110.55 395.31,-115.45"/>
</g>
<!-- strategy_loader -->
<g id="node17" class="node">
<title>strategy_loader</title>
<path fill="#1e40af" stroke="black" stroke-width="1.5" d="M482.12,-785C482.12,-785 411.38,-785 411.38,-785 405.38,-785 399.38,-779 399.38,-773 399.38,-773 399.38,-761 399.38,-761 399.38,-755 405.38,-749 411.38,-749 411.38,-749 482.12,-749 482.12,-749 488.12,-749 494.12,-755 494.12,-761 494.12,-761 494.12,-773 494.12,-773 494.12,-779 488.12,-785 482.12,-785"/>
<text xml:space="preserve" text-anchor="middle" x="446.75" y="-762.75" font-family="Consolas" font-size="10.00" fill="white">strategy_loader</text>
</g>
<!-- engine&#45;&gt;strategy_loader -->
<g id="edge14" class="edge">
<title>engine&#45;&gt;strategy_loader</title>
<path fill="none" stroke="#888888" stroke-width="1.2" d="M284.06,-764.33C284.06,-764.33 389.94,-764.33 389.94,-764.33"/>
<polygon fill="#888888" stroke="#888888" stroke-width="1.2" points="389.94,-766.78 396.94,-764.33 389.94,-761.88 389.94,-766.78"/>
</g>
<!-- config_loader -->
<g id="node16" class="node">
<title>config_loader</title>
<path fill="#1e40af" stroke="black" stroke-width="1.5" d="M286.5,-930C286.5,-930 226.25,-930 226.25,-930 220.25,-930 214.25,-924 214.25,-918 214.25,-918 214.25,-906 214.25,-906 214.25,-900 220.25,-894 226.25,-894 226.25,-894 286.5,-894 286.5,-894 292.5,-894 298.5,-900 298.5,-906 298.5,-906 298.5,-918 298.5,-918 298.5,-924 292.5,-930 286.5,-930"/>
<text xml:space="preserve" text-anchor="middle" x="256.38" y="-907.75" font-family="Consolas" font-size="10.00" fill="white">config_loader</text>
</g>
<!-- strategy_loader&#45;&gt;strategy_base -->
<g id="edge15" class="edge">
<title>strategy_loader&#45;&gt;strategy_base</title>
<path fill="none" stroke="#888888" stroke-width="1.2" d="M398.8,-756.67C393.8,-756.67 390.5,-756.67 390.5,-756.67 390.5,-756.67 390.5,-122 390.5,-122 390.5,-122 395.3,-122 395.3,-122"/>
<polygon fill="#888888" stroke="#888888" stroke-width="1.2" points="395.3,-124.45 402.3,-122 395.3,-119.55 395.3,-124.45"/>
</g>
<!-- order_manager -->
<g id="node18" class="node">
<title>order_manager</title>
<path fill="#1e40af" stroke="black" stroke-width="1.5" d="M286.5,-1088C286.5,-1088 226.25,-1088 226.25,-1088 220.25,-1088 214.25,-1082 214.25,-1076 214.25,-1076 214.25,-1064 214.25,-1064 214.25,-1058 220.25,-1052 226.25,-1052 226.25,-1052 286.5,-1052 286.5,-1052 292.5,-1052 298.5,-1058 298.5,-1064 298.5,-1064 298.5,-1076 298.5,-1076 298.5,-1082 292.5,-1088 286.5,-1088"/>
<text xml:space="preserve" text-anchor="middle" x="256.38" y="-1065.75" font-family="Consolas" font-size="10.00" fill="white">order_manager</text>
</g>
<!-- trailing_stop -->
<g id="node27" class="node">
<title>trailing_stop</title>
<path fill="#1e3a5f" stroke="black" stroke-width="1.5" d="M476.88,-1180C476.88,-1180 416.62,-1180 416.62,-1180 410.62,-1180 404.62,-1174 404.62,-1168 404.62,-1168 404.62,-1156 404.62,-1156 404.62,-1150 410.62,-1144 416.62,-1144 416.62,-1144 476.88,-1144 476.88,-1144 482.88,-1144 488.88,-1150 488.88,-1156 488.88,-1156 488.88,-1168 488.88,-1168 488.88,-1174 482.88,-1180 476.88,-1180"/>
<text xml:space="preserve" text-anchor="middle" x="446.75" y="-1157.75" font-family="Consolas" font-size="10.00" fill="white">trailing_stop</text>
</g>
<!-- order_manager&#45;&gt;trailing_stop -->
<g id="edge17" class="edge">
<title>order_manager&#45;&gt;trailing_stop</title>
<path fill="none" stroke="#888888" stroke-width="1.2" d="M299.09,-1080.33C335,-1080.33 380.5,-1080.33 380.5,-1080.33 380.5,-1080.33 380.5,-1151.67 380.5,-1151.67 380.5,-1151.67 395.23,-1151.67 395.23,-1151.67"/>
<polygon fill="#888888" stroke="#888888" stroke-width="1.2" points="395.23,-1154.12 402.23,-1151.67 395.23,-1149.22 395.23,-1154.12"/>
</g>
<!-- double_tap -->
<g id="node28" class="node">
<title>double_tap</title>
<path fill="#1e3a5f" stroke="black" stroke-width="1.5" d="M469,-1101C469,-1101 424.5,-1101 424.5,-1101 418.5,-1101 412.5,-1095 412.5,-1089 412.5,-1089 412.5,-1077 412.5,-1077 412.5,-1071 418.5,-1065 424.5,-1065 424.5,-1065 469,-1065 469,-1065 475,-1065 481,-1071 481,-1077 481,-1077 481,-1089 481,-1089 481,-1095 475,-1101 469,-1101"/>
<text xml:space="preserve" text-anchor="middle" x="446.75" y="-1078.75" font-family="Consolas" font-size="10.00" fill="white">double_tap</text>
</g>
<!-- order_manager&#45;&gt;double_tap -->
<g id="edge18" class="edge">
<title>order_manager&#45;&gt;double_tap</title>
<path fill="none" stroke="#888888" stroke-width="1.2" d="M299.1,-1072.67C299.1,-1072.67 402.99,-1072.67 402.99,-1072.67"/>
<polygon fill="#888888" stroke="#888888" stroke-width="1.2" points="402.99,-1075.12 409.99,-1072.67 402.99,-1070.22 402.99,-1075.12"/>
</g>
<!-- order_manager&#45;&gt;ibkr_connector -->
<g id="edge32" class="edge">
<title>order_manager&#45;&gt;ibkr_connector</title>
<path fill="none" stroke="#888888" stroke-width="1.2" d="M299.11,-1058.5C329.33,-1058.5 364.5,-1058.5 364.5,-1058.5 364.5,-1058.5 364.5,-520 364.5,-520 364.5,-520 392.48,-520 392.48,-520"/>
<polygon fill="#888888" stroke="#888888" stroke-width="1.2" points="392.48,-522.45 399.48,-520 392.48,-517.55 392.48,-522.45"/>
</g>
<!-- scheduler -->
<g id="node19" class="node">
<title>scheduler</title>
<path fill="#1e40af" stroke="black" stroke-width="1.5" d="M276,-614C276,-614 236.75,-614 236.75,-614 230.75,-614 224.75,-608 224.75,-602 224.75,-602 224.75,-590 224.75,-590 224.75,-584 230.75,-578 236.75,-578 236.75,-578 276,-578 276,-578 282,-578 288,-584 288,-590 288,-590 288,-602 288,-602 288,-608 282,-614 276,-614"/>
<text xml:space="preserve" text-anchor="middle" x="256.38" y="-591.75" font-family="Consolas" font-size="10.00" fill="white">scheduler</text>
</g>
<!-- scheduler&#45;&gt;polygon_loader -->
<g id="edge25" class="edge">
<title>scheduler&#45;&gt;polygon_loader</title>
<path fill="none" stroke="#888888" stroke-width="1.2" d="M288.38,-596C293.15,-596 296.5,-596 296.5,-596 296.5,-596 296.5,-195 296.5,-195 296.5,-195 392.45,-195 392.45,-195"/>
<polygon fill="#888888" stroke="#888888" stroke-width="1.2" points="392.45,-197.45 399.45,-195 392.45,-192.55 392.45,-197.45"/>
</g>
<!-- backtest_engine -->
<g id="node20" class="node">
<title>backtest_engine</title>
<path fill="#1e3a5f" stroke="black" stroke-width="1.5" d="M291.75,-1167C291.75,-1167 221,-1167 221,-1167 215,-1167 209,-1161 209,-1155 209,-1155 209,-1143 209,-1143 209,-1137 215,-1131 221,-1131 221,-1131 291.75,-1131 291.75,-1131 297.75,-1131 303.75,-1137 303.75,-1143 303.75,-1143 303.75,-1155 303.75,-1155 303.75,-1161 297.75,-1167 291.75,-1167"/>
<text xml:space="preserve" text-anchor="middle" x="256.38" y="-1150" font-family="Consolas" font-size="10.00" fill="white">backtest_engine</text>
<text xml:space="preserve" text-anchor="middle" x="256.38" y="-1139.5" font-family="Consolas" font-size="10.00" fill="white">700 lines</text>
</g>
<!-- backtest_report -->
<g id="node21" class="node">
<title>backtest_report</title>
<path fill="#1e3a5f" stroke="black" stroke-width="1.5" d="M482.12,-1259C482.12,-1259 411.38,-1259 411.38,-1259 405.38,-1259 399.38,-1253 399.38,-1247 399.38,-1247 399.38,-1235 399.38,-1235 399.38,-1229 405.38,-1223 411.38,-1223 411.38,-1223 482.12,-1223 482.12,-1223 488.12,-1223 494.12,-1229 494.12,-1235 494.12,-1235 494.12,-1247 494.12,-1247 494.12,-1253 488.12,-1259 482.12,-1259"/>
<text xml:space="preserve" text-anchor="middle" x="446.75" y="-1236.75" font-family="Consolas" font-size="10.00" fill="white">backtest_report</text>
</g>
<!-- backtest_engine&#45;&gt;backtest_report -->
<g id="edge16" class="edge">
<title>backtest_engine&#45;&gt;backtest_report</title>
<path fill="none" stroke="#888888" stroke-width="1.2" d="M304.48,-1159.33C337.55,-1159.33 375.5,-1159.33 375.5,-1159.33 375.5,-1159.33 375.5,-1234.5 375.5,-1234.5 375.5,-1234.5 390.01,-1234.5 390.01,-1234.5"/>
<polygon fill="#888888" stroke="#888888" stroke-width="1.2" points="390.01,-1236.95 397.01,-1234.5 390.01,-1232.05 390.01,-1236.95"/>
</g>
<!-- divergence -->
<g id="node26" class="node">
<title>divergence</title>
<path fill="#1e3a5f" stroke="black" stroke-width="1.5" d="M302.25,-1325C302.25,-1325 210.5,-1325 210.5,-1325 204.5,-1325 198.5,-1319 198.5,-1313 198.5,-1313 198.5,-1301 198.5,-1301 198.5,-1295 204.5,-1289 210.5,-1289 210.5,-1289 302.25,-1289 302.25,-1289 308.25,-1289 314.25,-1295 314.25,-1301 314.25,-1301 314.25,-1313 314.25,-1313 314.25,-1319 308.25,-1325 302.25,-1325"/>
<text xml:space="preserve" text-anchor="middle" x="256.38" y="-1302.75" font-family="Consolas" font-size="10.00" fill="white">divergence_detector</text>
</g>
<!-- scanner -->
<g id="node30" class="node">
<title>scanner</title>
<path fill="#1e3a5f" stroke="black" stroke-width="1.5" d="M271.38,-1404C271.38,-1404 241.38,-1404 241.38,-1404 235.38,-1404 229.38,-1398 229.38,-1392 229.38,-1392 229.38,-1380 229.38,-1380 229.38,-1374 235.38,-1368 241.38,-1368 241.38,-1368 271.38,-1368 271.38,-1368 277.38,-1368 283.38,-1374 283.38,-1380 283.38,-1380 283.38,-1392 283.38,-1392 283.38,-1398 277.38,-1404 271.38,-1404"/>
<text xml:space="preserve" text-anchor="middle" x="256.38" y="-1381.75" font-family="Consolas" font-size="10.00" fill="white">scanner</text>
</g>
<!-- mock_data -->
<g id="node31" class="node">
<title>mock_data</title>
<path fill="#1e3a5f" stroke="black" stroke-width="1.5" d="M276,-1483C276,-1483 236.75,-1483 236.75,-1483 230.75,-1483 224.75,-1477 224.75,-1471 224.75,-1471 224.75,-1459 224.75,-1459 224.75,-1453 230.75,-1447 236.75,-1447 236.75,-1447 276,-1447 276,-1447 282,-1447 288,-1453 288,-1459 288,-1459 288,-1471 288,-1471 288,-1477 282,-1483 276,-1483"/>
<text xml:space="preserve" text-anchor="middle" x="256.38" y="-1460.75" font-family="Consolas" font-size="10.00" fill="white">mock_data</text>
</g>
<!-- server -->
<g id="node32" class="node">
<title>server</title>
<path fill="#c2410c" stroke="black" stroke-width="1.5" d="M88.25,-930C88.25,-930 54.25,-930 54.25,-930 48.25,-930 42.25,-924 42.25,-918 42.25,-918 42.25,-906 42.25,-906 42.25,-900 48.25,-894 54.25,-894 54.25,-894 88.25,-894 88.25,-894 94.25,-894 100.25,-900 100.25,-906 100.25,-906 100.25,-918 100.25,-918 100.25,-924 94.25,-930 88.25,-930"/>
<text xml:space="preserve" text-anchor="middle" x="71.25" y="-913" font-family="Consolas" font-size="10.00" fill="white">server</text>
<text xml:space="preserve" text-anchor="middle" x="71.25" y="-902.5" font-family="Consolas" font-size="10.00" fill="white">lifespan</text>
</g>
<!-- server&#45;&gt;realtime_scanner -->
<g id="edge1" class="edge">
<title>server&#45;&gt;realtime_scanner</title>
<path fill="none" stroke="#888888" stroke-width="1.2" d="M100.77,-906C111.71,-906 121.5,-906 121.5,-906 121.5,-906 121.5,-842 121.5,-842 121.5,-842 196.18,-842 196.18,-842"/>
<polygon fill="#888888" stroke="#888888" stroke-width="1.2" points="196.18,-844.45 203.18,-842 196.18,-839.55 196.18,-844.45"/>
</g>
<!-- server&#45;&gt;ignition_monitor -->
<g id="edge2" class="edge">
<title>server&#45;&gt;ignition_monitor</title>
<path fill="none" stroke="#888888" stroke-width="1.2" d="M71.5,-930.52C71.5,-935.07 71.5,-938.67 71.5,-938.67 71.5,-938.67 336.5,-938.67 336.5,-938.67 336.5,-938.67 336.5,-1474 336.5,-1474 336.5,-1474 387.33,-1474 387.33,-1474"/>
<polygon fill="#888888" stroke="#888888" stroke-width="1.2" points="387.33,-1476.45 394.33,-1474 387.33,-1471.55 387.33,-1476.45"/>
</g>
<!-- server&#45;&gt;config_loader -->
<g id="edge3" class="edge">
<title>server&#45;&gt;config_loader</title>
<path fill="none" stroke="#888888" stroke-width="1.2" d="M100.99,-918C100.99,-918 204.78,-918 204.78,-918"/>
<polygon fill="#888888" stroke="#888888" stroke-width="1.2" points="204.78,-920.45 211.78,-918 204.78,-915.55 204.78,-920.45"/>
</g>
<!-- routes -->
<g id="node33" class="node">
<title>routes</title>
<path fill="#ea580c" stroke="#fbbf24" stroke-width="3" d="M105.5,-851C105.5,-851 37,-851 37,-851 31,-851 25,-845 25,-839 25,-839 25,-827 25,-827 25,-821 31,-815 37,-815 37,-815 105.5,-815 105.5,-815 111.5,-815 117.5,-821 117.5,-827 117.5,-827 117.5,-839 117.5,-839 117.5,-845 111.5,-851 105.5,-851"/>
<text xml:space="preserve" text-anchor="middle" x="71.25" y="-834" font-family="Consolas" font-size="10.00" fill="white">routes</text>
<text xml:space="preserve" text-anchor="middle" x="71.25" y="-823.5" font-family="Consolas" font-size="10.00" fill="white">⚠️ 1,194 lines</text>
</g>
<!-- routes&#45;&gt;polygon_client -->
<g id="edge7" class="edge">
<title>routes&#45;&gt;polygon_client</title>
<path fill="none" stroke="#888888" stroke-width="1.2" d="M71.5,-813.56C71.5,-719.16 71.5,-313 71.5,-313 71.5,-313 575.26,-313 575.26,-313"/>
<polygon fill="#888888" stroke="#888888" stroke-width="1.2" points="575.26,-315.45 582.26,-313 575.26,-310.55 575.26,-315.45"/>
</g>
<!-- routes&#45;&gt;watchlist_store -->
<g id="edge6" class="edge">
<title>routes&#45;&gt;watchlist_store</title>
<path fill="none" stroke="#888888" stroke-width="1.2" d="M48.5,-813.55C48.5,-714.2 48.5,-268 48.5,-268 48.5,-268 389.9,-268 389.9,-268"/>
<polygon fill="#888888" stroke="#888888" stroke-width="1.2" points="389.9,-270.45 396.9,-268 389.9,-265.55 389.9,-270.45"/>
</g>
<!-- routes&#45;&gt;realtime_scanner -->
<g id="edge4" class="edge">
<title>routes&#45;&gt;realtime_scanner</title>
<path fill="none" stroke="#888888" stroke-width="1.2" d="M118.92,-833C118.92,-833 196.15,-833 196.15,-833"/>
<polygon fill="#888888" stroke="#888888" stroke-width="1.2" points="196.15,-835.45 203.15,-833 196.15,-830.55 196.15,-835.45"/>
</g>
<!-- routes&#45;&gt;ignition_monitor -->
<g id="edge5" class="edge">
<title>routes&#45;&gt;ignition_monitor</title>
<path fill="none" stroke="#888888" stroke-width="1.2" d="M113.5,-852.06C113.5,-881.41 113.5,-934.33 113.5,-934.33 113.5,-934.33 341.5,-934.33 341.5,-934.33 341.5,-934.33 341.5,-1465 341.5,-1465 341.5,-1465 387.47,-1465 387.47,-1465"/>
<polygon fill="#888888" stroke="#888888" stroke-width="1.2" points="387.47,-1467.45 394.47,-1465 387.47,-1462.55 387.47,-1467.45"/>
</g>
<!-- routes&#45;&gt;backtest_engine -->
<g id="edge8" class="edge">
<title>routes&#45;&gt;backtest_engine</title>
<path fill="none" stroke="#888888" stroke-width="1.2" d="M109.5,-852.29C109.5,-920.9 109.5,-1149 109.5,-1149 109.5,-1149 199.47,-1149 199.47,-1149"/>
<polygon fill="#888888" stroke="#888888" stroke-width="1.2" points="199.47,-1151.45 206.47,-1149 199.47,-1146.55 199.47,-1151.45"/>
</g>
<!-- oracle -->
<g id="node36" class="node">
<title>oracle</title>
<path fill="#0f766e" stroke="black" stroke-width="1.5" d="M281.25,-448C281.25,-448 231.5,-448 231.5,-448 225.5,-448 219.5,-442 219.5,-436 219.5,-436 219.5,-424 219.5,-424 219.5,-418 225.5,-412 231.5,-412 231.5,-412 281.25,-412 281.25,-412 287.25,-412 293.25,-418 293.25,-424 293.25,-424 293.25,-436 293.25,-436 293.25,-442 287.25,-448 281.25,-448"/>
<text xml:space="preserve" text-anchor="middle" x="256.38" y="-431" font-family="Consolas" font-size="10.00" fill="white">oracle</text>
<text xml:space="preserve" text-anchor="middle" x="256.38" y="-420.5" font-family="Consolas" font-size="10.00" fill="white">(Read&#45;Only)</text>
</g>
<!-- routes&#45;&gt;oracle -->
<g id="edge34" class="edge">
<title>routes&#45;&gt;oracle</title>
<path fill="none" stroke="#888888" stroke-width="1.2" d="M94.5,-813.56C94.5,-733.06 94.5,-430 94.5,-430 94.5,-430 210.01,-430 210.01,-430"/>
<polygon fill="#888888" stroke="#888888" stroke-width="1.2" points="210.01,-432.45 217.01,-430 210.01,-427.55 210.01,-432.45"/>
</g>
<!-- websocket -->
<g id="node34" class="node">
<title>websocket</title>
<path fill="#c2410c" stroke="black" stroke-width="1.5" d="M90.88,-1009C90.88,-1009 51.62,-1009 51.62,-1009 45.62,-1009 39.62,-1003 39.62,-997 39.62,-997 39.62,-985 39.62,-985 39.62,-979 45.62,-973 51.62,-973 51.62,-973 90.88,-973 90.88,-973 96.88,-973 102.88,-979 102.88,-985 102.88,-985 102.88,-997 102.88,-997 102.88,-1003 96.88,-1009 90.88,-1009"/>
<text xml:space="preserve" text-anchor="middle" x="71.25" y="-986.75" font-family="Consolas" font-size="10.00" fill="white">websocket</text>
</g>
<!-- websocket&#45;&gt;tick_broadcaster -->
<g id="edge9" class="edge">
<title>websocket&#45;&gt;tick_broadcaster</title>
<path fill="none" stroke="#888888" stroke-width="1.2" d="M71.5,-1009.71C71.5,-1022.45 71.5,-1037 71.5,-1037 71.5,-1037 614.5,-1037 614.5,-1037 614.5,-1037 614.5,-1437.52 614.5,-1437.52"/>
<polygon fill="#888888" stroke="#888888" stroke-width="1.2" points="612.05,-1437.52 614.5,-1444.52 616.95,-1437.52 612.05,-1437.52"/>
</g>
<!-- leg1 -->
<g id="node37" class="node">
<title>leg1</title>
<path fill="lightgrey" stroke="none" stroke-width="1.5" d="M93.5,-1209C93.5,-1209 49,-1209 49,-1209 43,-1209 37,-1203 37,-1197 37,-1197 37,-1185 37,-1185 37,-1179 43,-1173 49,-1173 49,-1173 93.5,-1173 93.5,-1173 99.5,-1173 105.5,-1179 105.5,-1185 105.5,-1185 105.5,-1197 105.5,-1197 105.5,-1203 99.5,-1209 93.5,-1209"/>
<text xml:space="preserve" text-anchor="middle" x="71.25" y="-1187.33" font-family="Consolas" font-size="9.00" fill="#888888">━━━ Normal</text>
</g>
<!-- leg2 -->
<g id="node38" class="node">
<title>leg2</title>
<path fill="lightgrey" stroke="none" stroke-width="1.5" d="M114.5,-1288C114.5,-1288 28,-1288 28,-1288 22,-1288 16,-1282 16,-1276 16,-1276 16,-1264 16,-1264 16,-1258 22,-1252 28,-1252 28,-1252 114.5,-1252 114.5,-1252 120.5,-1252 126.5,-1258 126.5,-1264 126.5,-1264 126.5,-1276 126.5,-1276 126.5,-1282 120.5,-1288 114.5,-1288"/>
<text xml:space="preserve" text-anchor="middle" x="71.25" y="-1266.33" font-family="Consolas" font-size="9.00" fill="#ef4444">&#45; &#45; &#45; Circular Dep</text>
</g>
<!-- leg3 -->
<g id="node39" class="node">
<title>leg3</title>
<path fill="lightgrey" stroke="none" stroke-width="1.5" d="M112.62,-1367C112.62,-1367 29.88,-1367 29.88,-1367 23.88,-1367 17.88,-1361 17.88,-1355 17.88,-1355 17.88,-1343 17.88,-1343 17.88,-1337 23.88,-1331 29.88,-1331 29.88,-1331 112.62,-1331 112.62,-1331 118.62,-1331 124.62,-1337 124.62,-1343 124.62,-1343 124.62,-1355 124.62,-1355 124.62,-1361 118.62,-1367 112.62,-1367"/>
<text xml:space="preserve" text-anchor="middle" x="71.25" y="-1345.33" font-family="Consolas" font-size="9.00" fill="#fbbf24">⚠️ Needs Refactor</text>
</g>
</g>
</svg>
