<?xml version="1.0" encoding="UTF-8" standalone="no"?>
<!DOCTYPE svg PUBLIC "-//W3C//DTD SVG 1.1//EN"
 "http://www.w3.org/Graphics/SVG/1.1/DTD/svg11.dtd">
<!-- Generated by graphviz version 14.1.1 (20251213.1925)
 -->
<!-- Title: RealtimeSync Pages: 1 -->
<svg width="1013pt" height="317pt"
 viewBox="0.00 0.00 1013.00 317.00" xmlns="http://www.w3.org/2000/svg" xmlns:xlink="http://www.w3.org/1999/xlink">
<g id="graph0" class="graph" transform="scale(1 1) rotate(0) translate(4 313)">
<title>RealtimeSync</title>
<polygon fill="white" stroke="none" points="-4,4 -4,-313 1009.16,-313 1009.16,4 -4,4"/>
<g id="clust1" class="cluster">
<title>cluster_producers</title>
<polygon fill="#eff6ff" stroke="black" points="0,-62 0,-247 153.25,-247 153.25,-62 0,-62"/>
<text xml:space="preserve" text-anchor="middle" x="76.62" y="-229.7" font-family="Times New Roman,serif" font-size="14.00">⚙️ Backend (Producers)</text>
</g>
<g id="clust2" class="cluster">
<title>cluster_hub</title>
<polygon fill="#fff7ed" stroke="black" points="254.25,-116 254.25,-193 383.75,-193 383.75,-116 254.25,-116"/>
<text xml:space="preserve" text-anchor="middle" x="319" y="-175.7" font-family="Times New Roman,serif" font-size="14.00">📨 Message Hub</text>
</g>
<g id="clust3" class="cluster">
<title>cluster_messages</title>
<polygon fill="#fef3c7" stroke="black" points="404.75,-8 404.75,-301 504,-301 504,-8 404.75,-8"/>
<text xml:space="preserve" text-anchor="middle" x="454.38" y="-283.7" font-family="Times New Roman,serif" font-size="14.00">Message Types</text>
</g>
<g id="clust4" class="cluster">
<title>cluster_frontend</title>
<polygon fill="#faf5ff" stroke="black" points="525,-116 525,-193 997.16,-193 997.16,-116 525,-116"/>
<text xml:space="preserve" text-anchor="middle" x="761.08" y="-175.7" font-family="Times New Roman,serif" font-size="14.00">🖥️ Frontend (Consumers)</text>
</g>
<!-- tick_broadcaster -->
<g id="node1" class="node">
<title>tick_broadcaster</title>
<polygon fill="#60a5fa" stroke="black" points="122.75,-214 29.5,-214 29.5,-210 25.5,-210 25.5,-206 29.5,-206 29.5,-186 25.5,-186 25.5,-182 29.5,-182 29.5,-178 122.75,-178 122.75,-214"/>
<polyline fill="none" stroke="black" points="29.5,-210 33.5,-210 33.5,-206 29.5,-206"/>
<polyline fill="none" stroke="black" points="29.5,-186 33.5,-186 33.5,-182 29.5,-182"/>
<text xml:space="preserve" text-anchor="middle" x="76.12" y="-192.3" font-family="Arial" font-size="11.00">TickBroadcaster</text>
</g>
<!-- connection_manager -->
<g id="node4" class="node">
<title>connection_manager</title>
<polygon fill="#fb923c" stroke="black" points="375.75,-160 262.25,-160 262.25,-156 258.25,-156 258.25,-152 262.25,-152 262.25,-132 258.25,-132 258.25,-128 262.25,-128 262.25,-124 375.75,-124 375.75,-160"/>
<polyline fill="none" stroke="black" points="262.25,-156 266.25,-156 266.25,-152 262.25,-152"/>
<polyline fill="none" stroke="black" points="262.25,-132 266.25,-132 266.25,-128 262.25,-128"/>
<text xml:space="preserve" text-anchor="middle" x="319" y="-138.3" font-family="Arial" font-size="11.00">ConnectionManager</text>
</g>
<!-- tick_broadcaster&#45;&gt;connection_manager -->
<g id="edge1" class="edge">
<title>tick_broadcaster&#45;&gt;connection_manager</title>
<path fill="none" stroke="black" d="M123,-185.72C159.18,-177.6 210.17,-166.17 250.93,-157.04"/>
<polygon fill="black" stroke="black" points="251.67,-160.46 260.66,-154.85 250.14,-153.63 251.67,-160.46"/>
<text xml:space="preserve" text-anchor="middle" x="203.75" y="-187.87" font-family="Arial" font-size="9.00">broadcast_tick</text>
<text xml:space="preserve" text-anchor="middle" x="203.75" y="-177.37" font-family="Arial" font-size="9.00">broadcast_bar</text>
</g>
<!-- realtime_scanner -->
<g id="node2" class="node">
<title>realtime_scanner</title>
<polygon fill="#60a5fa" stroke="black" points="125.75,-160 26.5,-160 26.5,-156 22.5,-156 22.5,-152 26.5,-152 26.5,-132 22.5,-132 22.5,-128 26.5,-128 26.5,-124 125.75,-124 125.75,-160"/>
<polyline fill="none" stroke="black" points="26.5,-156 30.5,-156 30.5,-152 26.5,-152"/>
<polyline fill="none" stroke="black" points="26.5,-132 30.5,-132 30.5,-128 26.5,-128"/>
<text xml:space="preserve" text-anchor="middle" x="76.12" y="-138.3" font-family="Arial" font-size="11.00">RealtimeScanner</text>
</g>
<!-- realtime_scanner&#45;&gt;connection_manager -->
<g id="edge2" class="edge">
<title>realtime_scanner&#45;&gt;connection_manager</title>
<path fill="none" stroke="black" d="M126.16,-142C161.97,-142 210.95,-142 250.46,-142"/>
<polygon fill="black" stroke="black" points="250.35,-145.5 260.35,-142 250.35,-138.5 250.35,-145.5"/>
<text xml:space="preserve" text-anchor="middle" x="203.75" y="-143.95" font-family="Arial" font-size="9.00">broadcast_watchlist</text>
</g>
<!-- ignition_monitor -->
<g id="node3" class="node">
<title>ignition_monitor</title>
<polygon fill="#60a5fa" stroke="black" points="119.38,-106 32.88,-106 32.88,-102 28.88,-102 28.88,-98 32.88,-98 32.88,-78 28.88,-78 28.88,-74 32.88,-74 32.88,-70 119.38,-70 119.38,-106"/>
<polyline fill="none" stroke="black" points="32.88,-102 36.88,-102 36.88,-98 32.88,-98"/>
<polyline fill="none" stroke="black" points="32.88,-78 36.88,-78 36.88,-74 32.88,-74"/>
<text xml:space="preserve" text-anchor="middle" x="76.12" y="-84.3" font-family="Arial" font-size="11.00">IgnitionMonitor</text>
</g>
<!-- ignition_monitor&#45;&gt;connection_manager -->
<g id="edge3" class="edge">
<title>ignition_monitor&#45;&gt;connection_manager</title>
<path fill="none" stroke="black" d="M119.63,-97.53C155.96,-105.67 208.86,-117.53 250.9,-126.96"/>
<polygon fill="black" stroke="black" points="249.89,-130.32 260.41,-129.09 251.42,-123.49 249.89,-130.32"/>
<text xml:space="preserve" text-anchor="middle" x="203.75" y="-126.48" font-family="Arial" font-size="9.00">broadcast_ignition</text>
</g>
<!-- msg_tick -->
<g id="node5" class="node">
<title>msg_tick</title>
<polygon fill="#fcd34d" stroke="black" points="480.88,-268 426.88,-268 426.88,-232 480.88,-232 480.88,-268"/>
<text xml:space="preserve" text-anchor="middle" x="453.88" y="-246.3" font-family="Arial" font-size="11.00">TICK</text>
</g>
<!-- connection_manager&#45;&gt;msg_tick -->
<g id="edge4" class="edge">
<title>connection_manager&#45;&gt;msg_tick</title>
<path fill="none" stroke="black" d="M336.7,-160.44C353.01,-177.83 379.06,-203.99 404.75,-223 408.52,-225.79 412.61,-228.5 416.75,-231.06"/>
<polygon fill="black" stroke="black" points="414.7,-233.91 425.1,-235.95 418.24,-227.87 414.7,-233.91"/>
</g>
<!-- msg_bar -->
<g id="node6" class="node">
<title>msg_bar</title>
<polygon fill="#fcd34d" stroke="black" points="480.88,-214 426.88,-214 426.88,-178 480.88,-178 480.88,-214"/>
<text xml:space="preserve" text-anchor="middle" x="453.88" y="-192.3" font-family="Arial" font-size="11.00">BAR</text>
</g>
<!-- connection_manager&#45;&gt;msg_bar -->
<g id="edge5" class="edge">
<title>connection_manager&#45;&gt;msg_bar</title>
<path fill="none" stroke="black" d="M365.36,-160.43C381.97,-167.19 400.55,-174.73 416.3,-181.14"/>
<polygon fill="black" stroke="black" points="414.71,-184.27 425.29,-184.79 417.34,-177.78 414.71,-184.27"/>
</g>
<!-- msg_watchlist -->
<g id="node7" class="node">
<title>msg_watchlist</title>
<polygon fill="#fcd34d" stroke="black" points="493.38,-160 414.38,-160 414.38,-124 493.38,-124 493.38,-160"/>
<text xml:space="preserve" text-anchor="middle" x="453.88" y="-138.3" font-family="Arial" font-size="11.00">WATCHLIST</text>
</g>
<!-- connection_manager&#45;&gt;msg_watchlist -->
<g id="edge6" class="edge">
<title>connection_manager&#45;&gt;msg_watchlist</title>
<path fill="none" stroke="black" d="M375.97,-142C384.74,-142 393.77,-142 402.41,-142"/>
<polygon fill="black" stroke="black" points="402.39,-145.5 412.39,-142 402.39,-138.5 402.39,-145.5"/>
</g>
<!-- msg_ignition -->
<g id="node8" class="node">
<title>msg_ignition</title>
<polygon fill="#fcd34d" stroke="black" points="486.25,-106 421.5,-106 421.5,-70 486.25,-70 486.25,-106"/>
<text xml:space="preserve" text-anchor="middle" x="453.88" y="-84.3" font-family="Arial" font-size="11.00">IGNITION</text>
</g>
<!-- connection_manager&#45;&gt;msg_ignition -->
<g id="edge7" class="edge">
<title>connection_manager&#45;&gt;msg_ignition</title>
<path fill="none" stroke="black" d="M365.36,-123.57C379.97,-117.63 396.11,-111.07 410.51,-105.22"/>
<polygon fill="black" stroke="black" points="411.77,-108.48 419.72,-101.48 409.14,-102 411.77,-108.48"/>
</g>
<!-- msg_status -->
<g id="node9" class="node">
<title>msg_status</title>
<polygon fill="#fcd34d" stroke="black" points="483.25,-52 424.5,-52 424.5,-16 483.25,-16 483.25,-52"/>
<text xml:space="preserve" text-anchor="middle" x="453.88" y="-30.3" font-family="Arial" font-size="11.00">STATUS</text>
</g>
<!-- connection_manager&#45;&gt;msg_status -->
<g id="edge8" class="edge">
<title>connection_manager&#45;&gt;msg_status</title>
<path fill="none" stroke="black" d="M336.7,-123.56C353.01,-106.17 379.06,-80.01 404.75,-61 407.85,-58.71 411.16,-56.47 414.54,-54.33"/>
<polygon fill="black" stroke="black" points="416.07,-57.49 422.85,-49.34 412.47,-51.49 416.07,-57.49"/>
</g>
<!-- ws_adapter -->
<g id="node10" class="node">
<title>ws_adapter</title>
<polygon fill="#a78bfa" stroke="black" points="603,-160 533,-160 533,-156 529,-156 529,-152 533,-152 533,-132 529,-132 529,-128 533,-128 533,-124 603,-124 603,-160"/>
<polyline fill="none" stroke="black" points="533,-156 537,-156 537,-152 533,-152"/>
<polyline fill="none" stroke="black" points="533,-132 537,-132 537,-128 533,-128"/>
<text xml:space="preserve" text-anchor="middle" x="568" y="-138.3" font-family="Arial" font-size="11.00">WsAdapter</text>
</g>
<!-- msg_tick&#45;&gt;ws_adapter -->
<g id="edge9" class="edge">
<title>msg_tick&#45;&gt;ws_adapter</title>
<path fill="none" stroke="black" d="M481.14,-238.11C488.93,-233.93 497.19,-228.81 504,-223 521.9,-207.73 538.1,-186.66 549.59,-169.83"/>
<polygon fill="black" stroke="black" points="552.34,-172.02 554.95,-161.75 546.51,-168.15 552.34,-172.02"/>
</g>
<!-- msg_bar&#45;&gt;ws_adapter -->
<g id="edge10" class="edge">
<title>msg_bar&#45;&gt;ws_adapter</title>
<path fill="none" stroke="black" d="M481.16,-183.34C493.56,-177.37 508.69,-170.08 522.78,-163.3"/>
<polygon fill="black" stroke="black" points="523.94,-166.62 531.43,-159.13 520.91,-160.31 523.94,-166.62"/>
</g>
<!-- msg_watchlist&#45;&gt;ws_adapter -->
<g id="edge11" class="edge">
<title>msg_watchlist&#45;&gt;ws_adapter</title>
<path fill="none" stroke="black" d="M493.78,-142C502.67,-142 512.2,-142 521.35,-142"/>
<polygon fill="black" stroke="black" points="521.15,-145.5 531.15,-142 521.15,-138.5 521.15,-145.5"/>
</g>
<!-- msg_ignition&#45;&gt;ws_adapter -->
<g id="edge12" class="edge">
<title>msg_ignition&#45;&gt;ws_adapter</title>
<path fill="none" stroke="black" d="M486.71,-103.33C497.82,-108.68 510.51,-114.8 522.47,-120.56"/>
<polygon fill="black" stroke="black" points="520.84,-123.66 531.37,-124.84 523.88,-117.35 520.84,-123.66"/>
</g>
<!-- msg_status&#45;&gt;ws_adapter -->
<g id="edge13" class="edge">
<title>msg_status&#45;&gt;ws_adapter</title>
<path fill="none" stroke="black" d="M483.69,-47.29C490.71,-51.19 497.93,-55.82 504,-61 521.9,-76.27 538.1,-97.34 549.59,-114.17"/>
<polygon fill="black" stroke="black" points="546.51,-115.85 554.95,-122.25 552.34,-111.98 546.51,-115.85"/>
</g>
<!-- backend_client -->
<g id="node11" class="node">
<title>backend_client</title>
<polygon fill="#a78bfa" stroke="black" points="748,-160 662.25,-160 662.25,-156 658.25,-156 658.25,-152 662.25,-152 662.25,-132 658.25,-132 658.25,-128 662.25,-128 662.25,-124 748,-124 748,-160"/>
<polyline fill="none" stroke="black" points="662.25,-156 666.25,-156 666.25,-152 662.25,-152"/>
<polyline fill="none" stroke="black" points="662.25,-132 666.25,-132 666.25,-128 662.25,-128"/>
<text xml:space="preserve" text-anchor="middle" x="705.12" y="-138.3" font-family="Arial" font-size="11.00">BackendClient</text>
</g>
<!-- ws_adapter&#45;&gt;backend_client -->
<g id="edge14" class="edge">
<title>ws_adapter&#45;&gt;backend_client</title>
<path fill="none" stroke="black" d="M603.45,-142C617.79,-142 634.79,-142 650.68,-142"/>
<polygon fill="black" stroke="black" points="650.5,-145.5 660.5,-142 650.5,-138.5 650.5,-145.5"/>
<text xml:space="preserve" text-anchor="middle" x="632.62" y="-143.95" font-family="Arial" font-size="9.00">parse</text>
</g>
<!-- qt_signals -->
<g id="node12" class="node">
<title>qt_signals</title>
<ellipse fill="#c4b5fd" stroke="black" cx="842.08" cy="-142" rx="40.83" ry="18"/>
<text xml:space="preserve" text-anchor="middle" x="842.08" y="-138.3" font-family="Arial" font-size="11.00">Qt Signals</text>
</g>
<!-- backend_client&#45;&gt;qt_signals -->
<g id="edge15" class="edge">
<title>backend_client&#45;&gt;qt_signals</title>
<path fill="none" stroke="black" d="M748.46,-142C761.62,-142 776.28,-142 789.97,-142"/>
<polygon fill="black" stroke="black" points="789.69,-145.5 799.69,-142 789.69,-138.5 789.69,-145.5"/>
<text xml:space="preserve" text-anchor="middle" x="774.62" y="-143.95" font-family="Arial" font-size="9.00">emit</text>
</g>
<!-- dashboard -->
<g id="node13" class="node">
<title>dashboard</title>
<polygon fill="#a78bfa" stroke="black" points="989.16,-160 919.91,-160 919.91,-124 989.16,-124 989.16,-160"/>
<text xml:space="preserve" text-anchor="middle" x="954.54" y="-138.3" font-family="Arial" font-size="11.00">Dashboard</text>
</g>
<!-- qt_signals&#45;&gt;dashboard -->
<g id="edge16" class="edge">
<title>qt_signals&#45;&gt;dashboard</title>
<path fill="none" stroke="black" d="M883.27,-142C891.4,-142 900.01,-142 908.3,-142"/>
<polygon fill="black" stroke="black" points="908.23,-145.5 918.23,-142 908.23,-138.5 908.23,-145.5"/>
</g>
</g>
</svg>
